<svg xmlns="http://www.w3.org/2000/svg" viewBox="0 0 56 56" width="800" height="800" fill="none">
  <defs>
    <linearGradient id="gear-gradient" x1="8" y1="6" x2="46" y2="50" gradientUnits="userSpaceOnUse">
      <stop offset="0" stop-color="#d9efff" />
      <stop offset="0.42" stop-color="#89cfff" />
      <stop offset="1" stop-color="#418de8" />
    </linearGradient>
    <filter id="gear-glow" x="-60%" y="-60%" width="220%" height="220%">
      <feDropShadow dx="0" dy="0" stdDeviation="1.25" flood-color="#d9efff" flood-opacity="0.42" />
      <feDropShadow dx="0" dy="0" stdDeviation="3" flood-color="#89cfff" flood-opacity="0.28" />
    </filter>
  </defs>
  <style>
    .gear-rotor {
      transform-origin: 28px 28px;
      animation: gear-spin 16s linear infinite;
    }

    .gear-shape {
      fill: url(#gear-gradient);
      stroke: #d9efff;
      stroke-width: 0.45;
    }

    @keyframes gear-spin {
      from {
        transform: rotate(0deg);
      }

      to {
        transform: rotate(360deg);
      }
    }
  </style>
  <g class="gear-rotor" filter="url(#gear-glow)">
    <path
      class="gear-shape"
      d="M28 50.8281c.6094 0 1.1719-.0703 1.8047-.1171l1.3594 2.5781c.2578.5156.7734.7968 1.4063.7031.5859-.1172 1.0078-.539 1.0781-1.1719l.4219-2.8359c1.1484-.3047 2.2968-.75 3.4218-1.2422l2.1094 1.8984c.4453.4219 1.0079.5157 1.5937.1875.5157-.2812.7266-.8437.6094-1.4531l-.5859-2.8125c.961-.6797 1.922-1.4531 2.7891-2.3203l2.625 1.1016c.586.2343 1.125.1172 1.5703-.4219.3984-.4219.4453-1.0313.1172-1.5469l-1.5235-2.4375c.7032-.9843 1.2657-2.0391 1.8048-3.164l2.8593.1406c.6094.0234 1.125-.3047 1.336-.8906.1875-.586.0001-1.1485-.4922-1.5235l-2.2265-1.7812c.3048-1.125.539-2.3438.6328-3.6094l2.7187-.8437c.586-.211.961-.6563.961-1.2891 0-.6094-.375-1.0547-.961-1.2656l-2.7187-.8672c-.0938-1.2656-.328-2.4374-.6328-3.5859l2.2265-1.8047c.4923-.3516.6797-.8906.4922-1.4766-.211-.586-.7266-.9141-1.336-.8907l-2.8593.1172c-.5391-1.125-1.1016-2.1797-1.8048-3.164l1.5235-2.4375c.3281-.4922.2812-1.1016-.1172-1.5235-.4453-.539-.9843-.6797-1.5703-.4218l-2.625 1.0546c-.8672-.8203-1.8281-1.6171-2.7891-2.2968l.5859-2.7891c.1172-.6328-.0937-1.1953-.6094-1.4765-.5858-.3047-1.1484-.2578-1.5937.2109l-2.1094 1.8515c-1.125-.4921-2.2734-.8906-3.4218-1.2187l-.4219-2.836C33.5781 2.5468 33.1562 2.1015 32.5703 2.0077c-.6329-.0937-1.1485.1641-1.4063.6797L29.8047 5.2655C29.1719 5.2186 28.6094 5.1718 28 5.1718c-.6328 0-1.1953.0468-1.8516.0937l-1.3359-2.578c-.2578-.5156-.7734-.7735-1.4297-.6798-.586.0938-.9844.5391-1.0781 1.1485l-.3985 2.8125c-1.1718.3515-2.3203.75-3.4218 1.2421l-2.1094-1.8515c-.4688-.4687-1.0313-.5156-1.5938-.2109-.5156.2812-.7266.8437-.6094 1.4765l.5859 2.7891c-.9843.6797-1.9453 1.4765-2.8125 2.2968L9.3437 10.6561c-.586-.2578-1.1484-.1171-1.5937.4218-.375.4219-.4219 1.0313-.1172 1.5l1.5469 2.461c-.7031.9843-1.2656 2.039-1.8047 3.164L4.4921 18.0858c-.6093-.0235-1.125.3047-1.3125.8907-.1875.586-.0234 1.125.4688 1.4766l2.25 1.8047c-.3047 1.1485-.5625 2.3203-.6328 3.5859l-2.7187.8672c-.6094.1875-.9375.6328-.9375 1.2656 0 .6328.3281 1.0781.9375 1.2891l2.7187.8672c.0703 1.2422.3281 2.4609.6328 3.5859l-2.25 1.7813c-.4922.375-.6563.9375-.4688 1.5234.1875.586.7032.9141 1.3125.8907l2.8828-.1407c.5391 1.125 1.1016 2.1797 1.7813 3.164l-1.5 2.4375c-.3516.5156-.3047 1.125.0937 1.5468.4453.5391 1.0078.6563 1.5937.4219l2.6016-1.1015c.8672.8672 1.8282 1.6406 2.8125 2.3203l-.5859 2.8125c-.1172.6094.0938 1.1719.6094 1.4531.5859.3282 1.1484.2344 1.5938-.1875l2.0859-1.8984c1.125.4922 2.2734.9375 3.4453 1.2422l.3985 2.836c.0937.6328.4921 1.0546 1.0781 1.1718.6563.0937 1.1719-.1875 1.4297-.7031l1.3359-2.5781c.6328.0468 1.2188.1171 1.8516.1171Zm5.8828-24.3281c-1.1015-2.9531-3.2578-4.5703-5.9531-4.5703-.3985 0-.8672.0468-1.6172.2109L19.586 10.6561c2.5078-1.2422 5.3672-1.9218 8.414-1.9218 10.2188 0 18.2344 7.7578 18.961 17.7656Zm-24.914 1.5c0-6.5156 3.0703-12.2578 7.9219-15.7265l6.7734 11.5546c-1.2656 1.3125-1.8515 2.7422-1.8515 4.2657 0 1.4765.5625 2.8359 1.8515 4.1953L16.7266 43.6327C11.9922 40.1405 8.9688 34.4686 8.9688 27.9999Zm16.1484.0703c0-1.5937 1.3594-2.8359 2.8594-2.8359 1.5937 0 2.9062 1.2422 2.9062 2.8359 0 1.5703-1.3125 2.8593-2.9062 2.8593-1.5 0-2.8594-1.289-2.8594-2.8593ZM28 47.2655c-3.1172 0-6.0234-.7265-8.5781-1.9921L26.3125 34c.7266.1875 1.2188.2343 1.6172.2343 2.7187 0 4.875-1.664 5.9531-4.6875h13.0781C46.211 39.5077 38.1953 47.2655 28 47.2655Z" />
  </g>
</svg>
